<?xml version="1.0" encoding="iso-8859-1"?>
<!-- Generator: Adobe Illustrator 18.0.0, SVG Export Plug-In . SVG Version: 6.00 Build 0)  -->
<!DOCTYPE svg PUBLIC "-//W3C//DTD SVG 1.1//EN" "http://www.w3.org/Graphics/SVG/1.1/DTD/svg11.dtd">
<svg version="1.1" id="Capa_1" xmlns="http://www.w3.org/2000/svg" xmlns:xlink="http://www.w3.org/1999/xlink" x="0px" y="0px"
	 viewBox="0 0 448.478 448.478" style="enable-background:new 0 0 448.478 448.478;" xml:space="preserve">
<g>
	<path d="M259.815,118.594c-15.48,0-28.074,12.594-28.074,28.074s12.594,28.074,28.074,28.074s28.074-12.594,28.074-28.074
		S275.295,118.594,259.815,118.594z M259.815,159.742c-7.209,0-13.074-5.865-13.074-13.074s5.865-13.074,13.074-13.074
		s13.074,5.865,13.074,13.074S267.024,159.742,259.815,159.742z"/>
	<path d="M188.663,118.594c-15.48,0-28.074,12.594-28.074,28.074s12.594,28.074,28.074,28.074s28.074-12.594,28.074-28.074
		S204.143,118.594,188.663,118.594z M188.663,159.742c-7.209,0-13.074-5.865-13.074-13.074s5.865-13.074,13.074-13.074
		s13.074,5.865,13.074,13.074S195.872,159.742,188.663,159.742z"/>
	<path d="M440.978,52.915c-9.953,0-15.276,3.438-19.553,6.2c-3.543,2.289-5.885,3.8-11.416,3.8s-7.872-1.512-11.415-3.8
		c-4.277-2.762-9.6-6.2-19.553-6.2c-9.953,0-15.275,3.438-19.551,6.2c-3.542,2.289-5.883,3.8-11.413,3.8
		c-5.53,0-7.87-1.512-11.413-3.8c-4.277-2.762-9.599-6.2-19.552-6.2c-1.422,0-2.739,0.077-3.983,0.205
		c-17.321-31.283-50.671-52.513-88.891-52.513c-38.221,0-71.572,21.231-88.893,52.516c-1.25-0.13-2.574-0.208-4.004-0.208
		c-9.952,0-15.274,3.438-19.55,6.2c-3.542,2.288-5.883,3.8-11.411,3.8s-7.869-1.512-11.411-3.8c-4.276-2.762-9.598-6.2-19.55-6.2
		s-15.273,3.438-19.55,6.2c-3.542,2.288-5.882,3.8-11.41,3.8s-7.869-1.512-11.411-3.8c-4.276-2.762-9.598-6.2-19.55-6.2
		c-4.142,0-7.5,3.358-7.5,7.5s3.358,7.5,7.5,7.5c5.528,0,7.869,1.512,11.411,3.8c4.276,2.762,9.598,6.2,19.55,6.2
		c9.952,0,15.273-3.438,19.55-6.2c3.542-2.288,5.882-3.8,11.41-3.8s7.868,1.512,11.41,3.8c4.276,2.762,9.598,6.2,19.55,6.2
		s15.274-3.438,19.55-6.2c2.891-1.868,4.984-3.217,8.661-3.65c-3.809,10.657-5.89,22.129-5.89,34.079
		c0,19.215,5.362,41.228,15.098,61.983c9.717,20.716,14.645,42.292,14.645,64.131v60.893c0,6.428-4.966,11.899-11.071,12.196
		c-3.226,0.16-6.289-0.981-8.624-3.205c-2.337-2.227-3.625-5.224-3.625-8.44V266.32c0-13.05-10.372-23.864-23.12-24.105
		c-6.38-0.128-12.406,2.274-16.961,6.744c-4.557,4.471-7.066,10.446-7.066,16.825v22.954c0,32.198,25.745,59.002,57.389,59.753
		c15.962,0.38,31.047-5.563,42.482-16.731c0.954-0.932,1.859-1.899,2.741-2.882v60.179c0,3.214-1.288,6.21-3.627,8.437
		c-2.337,2.226-5.402,3.359-8.632,3.206c-6.099-0.297-11.06-5.768-11.06-12.195v-10.583c0-6.374-2.506-12.344-7.057-16.811
		c-4.554-4.47-10.56-6.847-16.956-6.749c-12.756,0.223-23.134,11.034-23.134,24.1v10.596c0,15.95,6.3,30.888,17.739,42.06
		c11.091,10.833,25.62,16.748,41.05,16.748c0.476,0,0.953-0.005,1.43-0.017c21.206-0.506,39.75-12.719,49.686-30.403
		c2.755,4.974,6.251,9.58,10.446,13.677c11.092,10.833,25.62,16.748,41.051,16.748c0.476,0,0.953-0.005,1.43-0.017
		c31.646-0.755,57.393-27.562,57.393-59.756v-10.171c0-6.377-2.506-12.35-7.056-16.816c-4.55-4.466-10.588-6.839-16.943-6.743
		c-12.764,0.223-23.147,11.033-23.147,24.1v10.596c0,3.214-1.288,6.21-3.626,8.438c-2.338,2.225-5.414,3.361-8.632,3.205
		c-6.099-0.297-11.06-5.768-11.06-12.195v-60.098c10.503,11.961,25.617,19.68,42.39,20.078c0.479,0.011,0.957,0.017,1.435,0.017
		c15.428,0,29.956-5.916,41.048-16.748c11.44-11.172,17.741-26.109,17.741-42.059V266.32c0-13.05-10.372-23.864-23.12-24.105
		c-6.376-0.121-12.406,2.274-16.962,6.744c-4.556,4.471-7.065,10.446-7.065,16.825v23.366c0,6.428-4.966,11.899-11.071,12.196
		c-3.229,0.16-6.289-0.981-8.624-3.205c-2.337-2.227-3.625-5.224-3.625-8.44v-61.444c0-21.838,4.927-43.415,14.645-64.131
		c9.736-20.755,15.098-42.768,15.098-61.983c0-11.949-2.081-23.42-5.889-34.076c3.665,0.436,5.754,1.784,8.64,3.649
		c4.277,2.762,9.599,6.2,19.552,6.2s15.275-3.438,19.551-6.2c3.542-2.289,5.883-3.8,11.413-3.8c5.531,0,7.872,1.512,11.416,3.8
		c4.277,2.762,9.6,6.2,19.553,6.2c9.954,0,15.276-3.438,19.553-6.2c3.543-2.289,5.884-3.8,11.415-3.8c4.142,0,7.5-3.358,7.5-7.5
		S445.12,52.915,440.978,52.915z M224.239,15.607c31.729,0,59.52,17.169,74.583,42.701c-0.431,0.272-0.853,0.543-1.261,0.807
		c-3.542,2.289-5.883,3.8-11.413,3.8s-7.87-1.512-11.412-3.8c-4.276-2.763-9.599-6.2-19.551-6.2c-9.952,0-15.273,3.438-19.55,6.2
		c-3.542,2.288-5.882,3.8-11.41,3.8c-5.527,0-7.867-1.512-11.409-3.8c-4.276-2.762-9.598-6.2-19.549-6.2
		c-9.952,0-15.274,3.438-19.551,6.2c-3.542,2.289-5.883,3.8-11.413,3.8c-5.529,0-7.869-1.512-11.412-3.8
		c-0.403-0.26-0.819-0.528-1.244-0.796C164.711,32.781,192.505,15.607,224.239,15.607z M297.097,157.756
		c-10.66,22.724-16.064,46.444-16.064,70.501v61.444c0,7.254,3.018,14.29,8.279,19.301c5.335,5.083,12.333,7.679,19.698,7.326
		c14.211-0.691,25.342-12.63,25.342-27.179v-23.366c0-2.318,0.913-4.491,2.571-6.118c1.657-1.626,3.839-2.507,6.172-2.454
		c4.634,0.088,8.404,4.174,8.404,9.108v23.381c0,11.875-4.695,23.001-13.221,31.327c-8.521,8.321-19.775,12.761-31.647,12.466
		c-23.569-0.559-42.745-20.637-42.745-44.757v-71.316c0-4.142-3.358-7.5-7.5-7.5s-7.5,3.358-7.5,7.5l0,171.088
		c0,14.547,11.126,26.485,25.327,27.178c7.377,0.361,14.368-2.239,19.708-7.324c5.265-5.012,8.284-12.047,8.284-19.301v-10.596
		c0-4.938,3.772-9.021,8.417-9.102c2.341-0.027,4.513,0.827,6.166,2.45c1.654,1.624,2.564,3.794,2.564,6.112v10.171
		c0,24.118-19.178,44.197-42.749,44.76c-11.89,0.285-23.125-4.147-31.644-12.467c-8.525-8.326-13.22-19.452-13.22-31.329
		l0.001-162.306c0-4.142-3.358-7.5-7.5-7.5s-7.5,3.358-7.5,7.5l-0.001,161.375c-0.021,24.101-19.19,44.158-42.749,44.72
		c-11.876,0.268-23.125-4.146-31.643-12.466c-8.525-8.326-13.22-19.453-13.22-31.329v-10.596c0-4.938,3.766-9.021,8.403-9.102
		c2.327-0.033,4.521,0.829,6.179,2.456c1.654,1.624,2.564,3.792,2.564,6.106v10.583c0,14.548,11.126,26.486,25.327,27.177
		c7.373,0.367,14.368-2.239,19.708-7.324c5.265-5.012,8.284-12.047,8.284-19.301V217.422c0-4.142-3.358-7.5-7.5-7.5
		s-7.5,3.358-7.5,7.5v72.279c0,11.875-4.695,23.001-13.221,31.327c-8.521,8.32-19.755,12.766-31.647,12.466
		c-23.569-0.559-42.745-20.637-42.745-44.757v-22.954c0-2.318,0.913-4.491,2.571-6.119c1.657-1.626,3.846-2.498,6.171-2.453
		c4.634,0.088,8.404,4.174,8.404,9.108v23.381c0,7.254,3.018,14.29,8.279,19.301c5.335,5.083,12.331,7.679,19.698,7.326
		c14.211-0.691,25.342-12.63,25.342-27.179v-60.893c0-24.057-5.405-47.777-16.064-70.501c-8.82-18.803-13.678-38.553-13.678-55.613
		c0-10.611,1.924-20.78,5.434-30.182c4.213,2.717,9.508,5.954,19.167,5.954c9.953,0,15.275-3.438,19.551-6.2
		c3.542-2.288,5.883-3.8,11.412-3.8c5.528,0,7.868,1.512,11.41,3.8c4.276,2.762,9.598,6.2,19.549,6.2
		c9.952,0,15.273-3.438,19.549-6.2c3.542-2.288,5.882-3.8,11.41-3.8c5.529,0,7.87,1.512,11.412,3.8
		c4.276,2.763,9.599,6.2,19.551,6.2c9.675,0,14.971-3.247,19.187-5.965c3.513,9.405,5.439,19.578,5.439,30.193
		C310.775,119.203,305.917,138.953,297.097,157.756z"/>
</g>
<g>
</g>
<g>
</g>
<g>
</g>
<g>
</g>
<g>
</g>
<g>
</g>
<g>
</g>
<g>
</g>
<g>
</g>
<g>
</g>
<g>
</g>
<g>
</g>
<g>
</g>
<g>
</g>
<g>
</g>
</svg>
